<?xml version="1.0" encoding="UTF-8"?>
<svg version="1.1" xmlns="http://www.w3.org/2000/svg" width="300" height="300">
<path d="M0 0 C99 0 198 0 300 0 C300 99 300 198 300 300 C201 300 102 300 0 300 C0 201 0 102 0 0 Z " fill="#010101" transform="translate(0,0)"/>
<path d="M0 0 C99 0 198 0 300 0 C300 99 300 198 300 300 C201 300 102 300 0 300 C0 201 0 102 0 0 Z M16 20 C9.95722404 28.05072032 9.70128322 37.01945844 9.70947266 46.6574707 C9.70275543 47.80164459 9.69603821 48.94581848 9.68911743 50.12466431 C9.67018316 53.89174796 9.66621556 57.65865303 9.6640625 61.42578125 C9.65763164 64.05600558 9.65090306 66.68622919 9.64389038 69.31645203 C9.63112917 74.82483068 9.62812245 80.3331613 9.62939453 85.84155273 C9.630595 92.18434683 9.60950256 98.52680015 9.5779072 104.86950809 C9.54847527 110.99910364 9.54142188 117.12853721 9.54261398 123.25819969 C9.54026148 125.85320617 9.53145788 128.44821545 9.51594925 131.04317665 C9.49624518 134.68051674 9.50214559 138.31699018 9.51416016 141.9543457 C9.50292114 143.01496719 9.49168213 144.07558868 9.48010254 145.16835022 C9.55862152 154.57347249 11.67155598 163.49934424 18.28515625 170.5 C25.03551868 176.40464504 30.80537545 178.15156395 39.6940918 178.11352539 C40.5821048 178.11367142 41.4701178 178.11381744 42.38504028 178.1139679 C45.32312454 178.11327068 48.26114556 178.10548718 51.19921875 178.09765625 C53.23517319 178.09579139 55.27112808 178.09436781 57.30708313 178.09336853 C62.66811357 178.08954869 68.02911697 178.07972292 73.39013672 178.06866455 C78.8596968 178.05843899 84.32926124 178.05386845 89.79882812 178.04882812 C100.53256397 178.03810021 111.26627974 178.02103015 122 178 C121.98667633 179.639189 121.98667633 179.639189 121.9730835 181.31149292 C121.89179368 191.63905287 121.8319369 201.96654741 121.79275131 212.29435539 C121.77192792 217.60327423 121.74370643 222.91193359 121.69824219 228.22070312 C121.65459695 233.34950414 121.63082347 238.47805648 121.62049103 243.60702896 C121.61313309 245.55814653 121.5987651 247.50925137 121.57707977 249.4602623 C121.36993896 267.34118938 121.36993896 267.34118938 130.21875 282.46484375 C135.60634289 287.10809815 141.79203832 290.11266673 148.91833496 290.14717102 C150.440466 290.15790398 150.440466 290.15790398 151.99334717 290.16885376 C153.10606995 290.17154266 154.21879272 290.17423157 155.36523438 290.17700195 C156.53793884 290.18357315 157.71064331 290.19014435 158.91888428 290.19691467 C162.81049956 290.21666778 166.70210133 290.22832076 170.59375 290.23828125 C171.93667114 290.24233045 173.27959209 290.24644742 174.62251282 290.25063133 C180.93738218 290.26968553 187.25223989 290.28391181 193.56713247 290.2922433 C200.8366555 290.30199416 208.10587229 290.32825586 215.37528753 290.36874419 C221.00519985 290.39901486 226.63502499 290.41372279 232.26501703 290.41702431 C235.62180754 290.41936391 238.97801266 290.43018408 242.33476257 290.45348549 C246.08995639 290.47792553 249.84435978 290.47690197 253.59960938 290.4699707 C254.69613831 290.48278076 255.79266724 290.49559082 256.92242432 290.50878906 C266.29238252 290.44606614 275.4847086 288.45431305 282.5 281.84375 C287.45104736 275.75808763 290.10953644 268.73551629 290.14717102 260.94795227 C290.15432632 259.92893326 290.16148163 258.90991425 290.16885376 257.86001587 C290.17154266 256.74774628 290.17423157 255.63547668 290.17700195 254.48950195 C290.18357315 253.31343887 290.19014435 252.13737579 290.19691467 250.92567444 C290.21664068 247.02988328 290.22831359 243.13410563 290.23828125 239.23828125 C290.24233097 237.89376493 290.24644795 236.54924881 290.25063133 235.20473289 C290.26967336 228.88559959 290.28390538 222.56647789 290.2922433 216.24732143 C290.30200665 208.9692989 290.32830635 201.69158124 290.36874419 194.41366607 C290.39897626 188.77782007 290.41371894 183.14206111 290.41702431 177.50613564 C290.4193671 174.14502327 290.42822553 170.78423694 290.45348549 167.42321205 C290.47786353 163.66771901 290.47691363 159.91301885 290.4699707 156.1574707 C290.48278076 155.05532227 290.49559082 153.95317383 290.50878906 152.81762695 C290.4474406 143.69005258 288.05496351 136.39676294 281.84765625 129.5703125 C274.96340494 123.71942661 267.27839543 121.84800694 258.48950195 121.88647461 C257.18674316 121.88625557 257.18674316 121.88625557 255.85766602 121.8860321 C252.98451243 121.88672924 250.11142352 121.89451239 247.23828125 121.90234375 C245.24716731 121.90420863 243.25605292 121.90563221 241.26493835 121.90663147 C236.02227514 121.9104511 230.77963959 121.92027668 225.5369873 121.93133545 C220.18807347 121.94156146 214.83915517 121.94613165 209.49023438 121.95117188 C198.99347742 121.96189942 188.49674101 121.97896923 178 122 C178.00888245 120.87770996 178.01776489 119.75541992 178.0269165 118.59912109 C178.10811605 108.00604572 178.16802003 97.41303376 178.20724869 86.81971741 C178.22809479 81.37398271 178.2563583 75.9284999 178.30175781 70.48291016 C178.34532136 65.22444188 178.36915949 59.96621542 178.37950897 54.70758057 C178.38688146 52.70457149 178.40127822 50.70157516 178.42292023 48.69866943 C178.45209378 45.88606499 178.45595017 43.07445093 178.45410156 40.26171875 C178.47567322 39.02848625 178.47567322 39.02848625 178.49768066 37.77033997 C178.43780471 29.31286177 174.88109329 23.0147545 169 17 C160.51016753 10.53411493 152.66204458 9.70082463 142.2565918 9.70947266 C141.0914505 9.70275543 139.9263092 9.69603821 138.7258606 9.68911743 C134.88360297 9.67015822 131.04152021 9.66621426 127.19921875 9.6640625 C125.19784419 9.65925926 123.19646959 9.65445228 121.19509631 9.64914167 C114.90487231 9.63289023 108.61470549 9.62796972 102.32446289 9.62939453 C95.85727236 9.63059507 89.39041601 9.60950349 82.92330998 9.5779072 C77.35191758 9.55166711 71.78063382 9.54103046 66.20918018 9.54230535 C62.89000024 9.54281275 59.57118255 9.53538494 56.2520504 9.51594925 C52.54495166 9.4962738 48.83870533 9.50213453 45.1315918 9.51416016 C44.04710251 9.50292114 42.96261322 9.49168213 41.84526062 9.48010254 C31.72693005 9.56317864 22.91065206 12.3153549 16 20 Z " fill="#F5F5F5" transform="translate(0,0)"/>
<path d="M0 0 C7.92 0 15.84 0 24 0 C24.72703125 1.81757812 25.4540625 3.63515625 26.203125 5.5078125 C26.68289795 6.70720459 27.1626709 7.90659668 27.65698242 9.14233398 C28.73281355 11.83189089 29.8084776 14.52151454 30.8840332 17.21118164 C33.63744534 24.09629622 36.39245446 30.98076022 39.15234375 37.86328125 C41.63790344 44.06200957 44.11583778 50.26373977 46.58935547 56.46728516 C47.52341887 58.80648512 48.4599096 61.14471741 49.39892578 63.48193359 C50.68897007 66.69379521 51.97051728 69.90891941 53.25 73.125 C53.63309326 74.0730249 54.01618652 75.0210498 54.41088867 75.99780273 C54.75482666 76.86735596 55.09876465 77.73690918 55.453125 78.6328125 C55.75379883 79.38449707 56.05447266 80.13618164 56.36425781 80.91064453 C57 83 57 83 57 87 C55.2421875 88.3515625 55.2421875 88.3515625 52.875 89.625 C47.33196082 93.03811547 44.96401787 97.35378891 42 103 C41.34 103.99 40.68 104.98 40 106 C38.85297813 103.06296271 37.7075888 100.12529143 36.5625 97.1875 C36.07426758 95.93743164 36.07426758 95.93743164 35.57617188 94.66210938 C35.26357422 93.85966797 34.95097656 93.05722656 34.62890625 92.23046875 C34.1968689 91.12288208 34.1968689 91.12288208 33.75610352 89.99291992 C33.13028355 88.34339833 32.5579043 86.67371291 32 85 C12.2 84.505 12.2 84.505 -8 84 C-8.99 87.3 -9.98 90.6 -11 94 C-11.58114837 95.64776561 -12.18158475 97.28928976 -12.82421875 98.9140625 C-13.10096436 99.61998535 -13.37770996 100.3259082 -13.6628418 101.05322266 C-14.000979 101.90190918 -14.33911621 102.7505957 -14.6875 103.625 C-15.780625 106.38875 -16.87375 109.1525 -18 112 C-26.25 112 -34.5 112 -43 112 C-40.75013649 101.87561421 -40.75013649 101.87561421 -38.83959961 97.15283203 C-38.41355942 96.08962738 -37.98751923 95.02642273 -37.54856873 93.93099976 C-37.08781448 92.80134796 -36.62706024 91.67169617 -36.15234375 90.5078125 C-35.4098586 88.66236862 -34.667375 86.81692411 -33.92495823 84.97145271 C-33.1391892 83.02201473 -32.35003667 81.07397956 -31.55981445 79.12634277 C-29.92692699 75.10161886 -28.30328104 71.07321193 -26.68164062 67.04394531 C-26.13547987 65.68712882 -25.58930676 64.3303173 -25.04312134 62.97351074 C-24.77255543 62.30136032 -24.50198952 61.6292099 -24.22322464 60.93669128 C-23.40150401 58.89635241 -22.57885711 56.8563893 -21.75595093 54.81652832 C-16.78170057 42.48294492 -11.87825143 30.12185917 -7 17.75 C-6.2760009 15.91551131 -5.55196254 14.08103812 -4.82788086 12.24658203 C-3.21700773 8.16500755 -1.60852391 4.08250361 0 0 Z " fill="#F1F1F1" transform="translate(82,38)"/>
<path d="M0 0 C4.0366556 2.53814579 7.23776058 5.16762841 10.25 8.875 C10.40234375 11.5625 10.40234375 11.5625 10.25 13.875 C9.64414063 13.6584375 9.03828125 13.441875 8.4140625 13.21875 C2.3689086 11.20989886 -3.37099838 9.82314335 -9.75 10.875 C-12.68423195 12.67146854 -14.22205355 13.8191071 -15.75 16.875 C-16.25031206 20.29071853 -16.25031206 20.29071853 -15.75 23.875 C-11.94826141 28.13755539 -7.305041 29.48456197 -1.72265625 30.09765625 C3.93734102 30.33306301 9.01503934 29.11790589 14.453125 27.62890625 C17.04061687 26.93143987 19.617221 26.36984715 22.25 25.875 C21.5869183 28.54260518 20.92041562 31.20923455 20.25 33.875 C20.05680176 34.64440918 19.86360352 35.41381836 19.66455078 36.20654297 C19.06119965 38.57906736 18.43856017 40.94587627 17.8125 43.3125 C17.50602539 44.53356445 17.50602539 44.53356445 17.19335938 45.77929688 C16.6418203 47.83940701 15.95573848 49.86249352 15.25 51.875 C14.26 52.205 13.27 52.535 12.25 52.875 C11.35023438 52.40964844 10.45046875 51.94429687 9.5234375 51.46484375 C3.200561 48.39394788 -4.54303315 48.9762389 -11.328125 50.42578125 C-16.49346931 52.50571951 -18.73672046 56.22680479 -20.90234375 61.21875 C-22.63306971 66.64222306 -22.78557117 71.4115415 -20.1875 76.5625 C-14.87895073 84.57156562 -6.40270923 89.40971671 2.74609375 91.78125 C13.48053789 93.94327299 24.35178232 94.92587244 35.25 95.875 C31.97821814 99.41350321 29.18759151 101.68649572 24.75 103.5625 C23.8321875 103.95824219 22.914375 104.35398437 21.96875 104.76171875 C20.62296875 105.31279297 20.62296875 105.31279297 19.25 105.875 C18.43144531 106.22949219 17.61289063 106.58398438 16.76953125 106.94921875 C1.80289888 112.44858599 -15.43718655 111.49447588 -29.75 104.875 C-38.25500367 100.0164778 -43.11972181 94.7618131 -47.0625 85.9375 C-48.94451146 77.55399439 -47.82606471 69.24825406 -43.53125 61.74609375 C-39.5437045 56.08599445 -33.99798577 49.99899288 -27.75 46.875 C-28.99831023 44.29403425 -30.31709873 41.99099315 -31.875 39.5625 C-35.21556382 32.89388383 -34.73825753 24.48923841 -33.20703125 17.33984375 C-30.31669735 9.05209074 -24.88871222 2.93045051 -17.4375 -1.5 C-11.20676474 -2.9490082 -5.7515987 -3.02153242 0 0 Z " fill="#F1F1F1" transform="translate(211.75,152.125)"/>
<path d="M0 0 C2.3425689 3.51385335 3.51154159 7.12354326 4.8203125 11.09765625 C5.21559647 12.28276039 5.21559647 12.28276039 5.61886597 13.49180603 C6.17401512 15.15959125 6.7269525 16.82811409 7.27783203 18.49731445 C8.12354069 21.05808127 8.97723713 23.61608161 9.83203125 26.17382812 C10.37026775 27.79411276 10.90804401 29.41455038 11.4453125 31.03515625 C11.70152374 31.80287857 11.95773499 32.57060089 12.22171021 33.36158752 C14 38.76895966 14 38.76895966 14 41 C5.09 41 -3.82 41 -13 41 C-12.2411855 35.68829852 -11.23464865 31.13763522 -9.53125 26.1328125 C-9.29088013 25.41261932 -9.05051025 24.69242615 -8.80285645 23.95040894 C-8.29801726 22.44189356 -7.79028627 20.93434311 -7.27978516 19.42773438 C-6.49592545 17.1129677 -5.72189583 14.79508307 -4.94921875 12.4765625 C-4.45629813 11.00762145 -3.96282835 9.53886455 -3.46875 8.0703125 C-3.23643677 7.37559845 -3.00412354 6.6808844 -2.76477051 5.96511841 C-1.11610876 1.11610876 -1.11610876 1.11610876 0 0 Z " fill="#070707" transform="translate(94,67)"/>
<path d="M0 0 C0.66 0.33 1.32 0.66 2 1 C-1.3 4.3 -4.6 7.6 -8 11 C-8 6.67750434 -5.85084926 5.11604454 -3 2 C-2.01 1.34 -1.02 0.68 0 0 Z " fill="#222222" transform="translate(135,126)"/>
<path d="M0 0 C0.66 0.33 1.32 0.66 2 1 C-0.97 3.97 -3.94 6.94 -7 10 C-7.66 9.67 -8.32 9.34 -9 9 C-6.21000549 5.51250686 -3.74764169 2.49842779 0 0 Z " fill="#2C2C2C" transform="translate(23,14)"/>
<path d="M0 0 C0.66 0.33 1.32 0.66 2 1 C-0.31 3.31 -2.62 5.62 -5 8 C-5.33 7.34 -5.66 6.68 -6 6 C-4 4 -2 2 0 0 Z " fill="#282828" transform="translate(198,203)"/>
</svg>
